<?xml version="1.0" encoding="UTF-8"?>
<svg id="Layer_3" data-name="Layer 3" xmlns="http://www.w3.org/2000/svg" viewBox="0 0 755.16 300.03">
  <defs>
    <style>
      .cls-1 {
        font-family: MyriadPro-Regular, 'Myriad Pro';
        font-size: 266.17px;
      }

      .cls-1, .cls-2 {
        isolation: isolate;
      }

      .cls-1, .cls-3 {
        fill: #59a2d3;
      }

      .cls-4 {
        stroke-dasharray: 0 0 0 0 0 0 11.2 11.2;
      }

      .cls-4, .cls-5 {
        fill: none;
        stroke: #fff;
        stroke-miterlimit: 10;
        stroke-width: 4.44px;
      }

      .cls-3, .cls-6 {
        stroke-width: 0px;
      }

      .cls-6 {
        fill: #fff;
      }
    </style>
  </defs>
  <g class="cls-2">
    <text class="cls-1" transform="translate(194.47 232.91)"><tspan x="0" y="0">R</tspan></text>
  </g>
  <g class="cls-2">
    <g class="cls-2">
      <path class="cls-3" d="M390.5,53.5v75.06h86.77V53.5h23.42v179.4h-23.42v-84.11h-86.77v84.11h-23.16V53.5h23.16Z"/>
    </g>
  </g>
  <g>
    <path class="cls-3" d="M182.02,111.63v121.27h23.16V96.89c-.7.66-1.39,1.23-2.01,1.67l-21.15,13.07Z"/>
    <path class="cls-3" d="M189.39,65.11c1.11-.16,9.45-1.22,15.78,3.44v-15.05h-23.16v14.23c2.94-1.75,5.64-2.37,7.37-2.61h0Z"/>
    <polygon class="cls-3" points="118.77 120.71 118.76 120.71 81.5 92.66 48.45 142.81 82.47 151.26 118.77 120.71"/>
    <path class="cls-3" d="M157.86,214.93l-23.88-73.61-40.62,25.1-3.53,38.73-7.03,5.2-8.99-31.85-8.54,5.28c-1.14.7-2.55.93-3.96.64-3.24-.67-5.71-3.84-5.58-7.16l.04-1.13c.06-1.6.73-3.02,1.85-3.97l7.29-6.13-21.75-15.2-35.02,53.14c-8.18,12.41.72,28.95,15.59,28.95h148.65l-.65-30.67-.08,2.5-13.81,10.19Z"/>
    <path class="cls-3" d="M169.11,78.34l-1.32-62.26c-.35-16.09-21.23-22.11-30.09-8.68h0s-42.59,64.62-42.59,64.62l59.45,18.57,14.57-12.26Z"/>
    <path class="cls-6" d="M209.56,73.52c-.67-1.2-1.36-2.07-1.81-2.58-.8-.92-1.66-1.71-2.57-2.38-6.34-4.66-14.67-3.6-15.78-3.44h0c-1.73.26-4.44.87-7.37,2.62-.45.27-.9.55-1.35.87l-11.56,9.73-14.57,12.26-59.45-18.57-27.91-8.72-8.8,11.96,23.11,17.4,37.26,28.05h0s-36.3,30.55-36.3,30.55l-34.01-8.44-5.71-1.42-4.64,5.89,5.07,3.54,21.75,15.2-7.29,6.13c-1.13.95-1.79,2.37-1.85,3.97l-.04,1.13c-.13,3.32,2.34,6.49,5.58,7.16,1.41.29,2.81.06,3.96-.64l8.54-5.28,8.99,31.85,7.03-5.2,3.53-38.73,40.62-25.1,23.88,73.61,13.81-10.19.08-2.5,2.62-85.88,7.66-4.73,21.15-13.07c.61-.44,1.3-1.01,2.01-1.67,1.65-1.55,3.4-3.72,4.62-6.71.64-1.55,3.85-9.4-.24-16.67Z"/>
  </g>
  <g>
    <line class="cls-5" x1="379.21" y1="139.12" x2="384.53" y2="139.12"/>
    <line class="cls-4" x1="395.73" y1="139.12" x2="479.73" y2="139.12"/>
    <line class="cls-5" x1="485.34" y1="139.12" x2="490.66" y2="139.12"/>
  </g>
  <path class="cls-3" d="M627.12,232.91c.53-8.78,1.06-21.83,1.06-33.27V43.92h23.16v80.92h.53c8.25-14.37,23.16-23.69,43.92-23.69,31.94,0,54.57,26.62,54.3,65.74,0,46.05-29.01,68.94-57.76,68.94-18.63,0-33.54-7.19-43.12-24.22h-.8l-1.06,21.29h-20.23ZM651.34,181.27c0,2.93.53,5.86,1.06,8.52,4.53,16.24,18.1,27.42,35.13,27.42,24.49,0,39.13-19.96,39.13-49.51,0-25.82-13.31-47.91-38.33-47.91-15.97,0-30.88,10.91-35.67,28.75-.53,2.66-1.33,5.86-1.33,9.58v23.16Z"/>
  <path class="cls-3" d="M618.61,197.77c0,13.31.27,25.02,1.06,35.13h-20.76l-1.33-21.03h-.53c-6.12,10.38-19.7,23.96-42.59,23.96-20.23,0-44.45-11.18-44.45-56.43v-75.33h23.42v71.33c0,24.49,7.45,40.99,28.75,40.99,15.7,0,26.62-10.91,30.88-21.29,1.33-3.46,2.13-7.72,2.13-11.98v-79.05h23.42v93.69Z"/>
</svg>